<?xml version="1.0" standalone="no"?>
<!DOCTYPE svg PUBLIC "-//W3C//DTD SVG 20010904//EN"
 "http://www.w3.org/TR/2001/REC-SVG-20010904/DTD/svg10.dtd">
<svg version="1.0" xmlns="http://www.w3.org/2000/svg"
 width="512.000000pt" height="512.000000pt" viewBox="0 0 512.000000 512.000000"
 preserveAspectRatio="xMidYMid meet">

<g transform="translate(0.000000,512.000000) scale(0.100000,-0.100000)"
fill="#000000" stroke="none">
<path d="M970 4796 c-278 -102 -454 -171 -468 -185 l-24 -22 5 -362 c4 -321 7
-372 25 -454 43 -188 122 -371 224 -521 123 -180 368 -388 559 -476 126 -57
144 -62 187 -47 177 63 349 175 502 330 129 130 197 223 269 368 58 118 92
214 122 348 20 90 22 136 26 455 4 334 4 357 -14 378 -12 15 -154 71 -473 187
-250 91 -464 165 -475 164 -11 -1 -220 -74 -465 -163z m390 -96 l0 -60 80 0
80 0 0 61 c0 45 3 60 13 56 6 -2 145 -53 307 -112 162 -59 319 -116 349 -127
l54 -20 -6 -287 c-3 -197 -10 -312 -21 -371 -67 -363 -280 -670 -598 -861 -45
-27 -85 -49 -90 -49 -4 0 -8 61 -8 135 l0 135 -80 0 -80 0 0 -141 0 -140 -57
32 c-185 104 -337 242 -451 410 -46 68 -116 213 -146 302 -53 159 -60 227 -61
546 l0 295 350 128 c193 70 353 127 358 128 4 0 7 -27 7 -60z"/>
<path d="M1225 4455 c-24 -23 -25 -29 -25 -160 l0 -135 -135 0 c-131 0 -137
-1 -160 -25 -25 -24 -25 -26 -25 -215 0 -189 0 -191 25 -215 23 -24 29 -25
160 -25 l135 0 0 -135 c0 -131 1 -137 25 -160 24 -25 25 -25 218 -25 250 0
237 -10 237 183 l0 137 138 0 c192 0 182 -13 182 241 0 252 10 239 -183 239
l-137 0 0 138 c0 192 13 182 -239 182 -190 0 -192 0 -216 -25z"/>
<path d="M3225 3975 l-25 -24 0 -271 0 -271 25 -24 c20 -21 34 -25 80 -25 l55
0 0 -160 0 -160 -69 0 c-184 0 -339 -110 -391 -277 -17 -55 -20 -93 -20 -240
l0 -174 -37 30 c-54 42 -143 81 -218 94 -84 14 -189 0 -275 -38 -60 -26 -99
-62 -513 -474 -246 -245 -461 -466 -477 -490 -54 -80 -73 -146 -74 -253 l-1
-98 -350 0 c-283 0 -362 -3 -410 -15 -256 -67 -415 -329 -350 -578 45 -173
178 -307 350 -352 88 -23 1262 -23 1350 0 257 67 415 329 350 580 -9 33 -29
83 -44 111 l-28 52 363 363 364 364 0 -491 c0 -464 1 -496 20 -557 38 -122
135 -219 257 -257 63 -19 93 -20 763 -20 670 0 700 1 763 20 122 38 219 135
257 257 19 63 20 93 20 1083 0 994 0 1019 -20 1084 -53 170 -203 276 -392 276
l-68 0 0 160 0 160 55 0 c46 0 60 4 80 25 l25 24 0 271 0 271 -25 24 -24 25
-671 0 -671 0 -24 -25z m295 -295 l0 -160 -80 0 -80 0 0 160 0 160 80 0 80 0
0 -160z m320 0 l0 -160 -80 0 -80 0 0 160 0 160 80 0 80 0 0 -160z m640 0 l0
-160 -80 0 -80 0 0 80 0 80 -80 0 -80 0 0 -80 0 -80 -80 0 -80 0 0 160 0 160
240 0 240 0 0 -160z m-160 -480 l0 -160 -400 0 -400 0 0 160 0 160 400 0 400
0 0 -160z m319 -336 c112 -33 161 -121 161 -291 l0 -93 -881 0 -881 0 3 118
c4 106 7 121 32 164 30 51 70 84 126 104 28 10 186 13 712 14 583 0 683 -2
728 -16z m-1942 -584 c90 -44 106 -69 100 -150 -10 -136 -27 -162 -253 -390
l-203 -205 -176 175 -175 175 187 188 c226 226 268 251 398 242 39 -3 81 -16
122 -35z m1623 -440 l0 -480 -640 0 -640 0 0 480 0 480 640 0 640 0 0 -480z
m-2137 -662 l-142 -142 -53 26 c-104 51 -148 58 -349 58 l-186 0 -7 48 c-7 55
6 137 30 184 9 18 102 120 207 226 l192 192 225 -225 225 -225 -142 -142z
m2615 -250 c-3 -244 -5 -277 -22 -311 -24 -49 -64 -89 -113 -113 -36 -18 -73
-19 -713 -22 -474 -2 -690 1 -729 9 -45 9 -63 20 -108 64 -29 30 -53 61 -53
69 0 14 80 16 790 16 l790 0 0 80 0 80 -800 0 -800 0 0 200 0 200 881 0 880 0
-3 -272z m-2907 1 c202 -95 249 -357 93 -513 -22 -21 -64 -51 -94 -65 -55 -26
-57 -26 -332 -29 l-278 -3 0 321 0 321 278 -3 c275 -3 277 -3 333 -29z m-1274
-231 c51 -48 15 -138 -56 -138 -47 0 -81 32 -81 79 0 72 84 109 137 59z m320
-80 c30 -28 31 -83 1 -115 -20 -21 -29 -23 -137 -23 -104 0 -117 2 -138 22
-30 28 -31 83 -1 115 20 21 29 23 137 23 104 0 117 -2 138 -22z"/>
</g>
</svg>
